<svg width="501" height="352" viewBox="0 0 501 352" fill="none" xmlns="http://www.w3.org/2000/svg">
<path fill-rule="evenodd" clip-rule="evenodd" d="M128.179 344.376C29.0167 307.59 32.0316 256.976 20.1331 243.056C8.23473 229.135 23.8784 215.861 18.766 199.575C10.5998 173.562 -2.85572 180.415 1.77131 152.314C6.39834 124.214 18.6591 120.327 27.4444 96.965C45.0458 50.159 31.5895 19.9196 68.6228 5.75212C105.656 -8.41535 151.034 11.7112 196.988 28.7593C282.284 60.4019 378.632 -40.9699 478.821 37.3336C513.348 64.3186 502.64 79.665 471.494 136.384C457.97 161.013 473.775 204.571 457.756 232.319C428.499 282.999 407.615 266.904 349.304 286.818C339.522 290.159 328.632 286.047 318.116 289.294C300.486 294.738 293.457 310.765 263.742 312.311C215.828 314.804 198.836 370.588 128.179 344.376Z" fill="#B8B5FF"/>
</svg>
