<svg width="390" height="320" viewBox="0 0 390 320" fill="none" xmlns="http://www.w3.org/2000/svg">
<path fill-rule="evenodd" clip-rule="evenodd" d="M228.777 320C318.509 320 331.23 282.784 344.835 275.946C358.441 269.107 349.982 255.383 358.905 245.031C373.159 228.497 381.797 237.018 386.515 215.568C391.232 194.117 382.656 188.049 382.656 168.898C382.656 130.529 402.372 112.366 377.194 92.2911C352.016 72.2158 309.971 74.5846 268.387 74.5846C191.203 74.5846 144.963 -24.0545 42.0185 5.53833C6.54144 15.7366 10.4624 29.6345 18.2577 78.7493C21.6428 100.077 -3.91596 127.194 0.518604 151.431C8.61779 195.697 30.0082 189.693 70.3671 219.58C77.1378 224.594 87.0131 224.542 94.3944 229.685C106.769 238.306 107.565 251.712 130.7 260.754C168.005 275.334 164.84 320 228.777 320Z" fill="#7868E6"/>
</svg>
