<svg width="444" height="391" viewBox="0 0 444 391" fill="none" xmlns="http://www.w3.org/2000/svg">
<path fill-rule="evenodd" clip-rule="evenodd" d="M260.454 0C362.611 0 377.092 45.4728 392.582 53.8288C408.071 62.1848 398.441 78.9544 408.6 91.6024C424.827 111.806 434.662 101.394 440.032 127.603C445.402 153.813 435.639 161.227 435.639 184.627C435.639 231.51 458.085 253.702 429.421 278.232C400.757 302.761 352.89 299.867 305.548 299.867C217.677 299.867 165.035 420.392 47.8364 384.233C7.44718 371.772 11.911 354.79 20.7857 294.778C24.6395 268.718 -4.45817 235.585 0.590411 205.97C9.81103 151.882 34.1632 159.219 80.1102 122.701C87.8185 116.574 99.061 116.638 107.464 110.354C121.553 99.82 122.459 83.4397 148.797 72.3913C191.267 54.5758 187.664 0 260.454 0Z" fill="#B8B5FF"/>
</svg>
