<svg width="473" height="1419" viewBox="0 0 473 1419" fill="none" xmlns="http://www.w3.org/2000/svg">
<path d="M56 162H416V637H56V162Z" fill="#7868E6"/>
<path fill-rule="evenodd" clip-rule="evenodd" d="M320.596 3.93171C412.119 28.615 413.435 75.3446 425.17 87.0312C436.905 98.7178 423.977 112.334 429.836 126.812C439.194 149.94 450.674 142.418 448.766 168.633C446.857 194.847 436.209 199.537 430.21 221.783C418.189 266.354 432.609 292.876 400.639 309.27C368.669 325.664 326.527 311.346 284.112 299.907C205.387 278.676 127.322 380.537 31.5925 317.844C-1.39795 296.238 6.95527 281.173 30.293 226.264C40.4274 202.42 22.8533 163.891 34.9695 136.956C57.0982 87.7632 77.0346 100.623 127.563 77.0065C136.039 73.0446 146.095 75.8214 155.235 71.8783C170.558 65.2676 175.569 49.9139 201.999 45.7742C244.617 39.099 255.382 -13.656 320.596 3.93171Z" fill="#7868E6"/>
<rect x="56" y="632.667" width="360" height="640" fill="#7868E6"/>
<path fill-rule="evenodd" clip-rule="evenodd" d="M311.944 1355.57C401.583 1330.73 404.591 1292.68 416.4 1282.57C428.209 1272.46 416.182 1262.07 422.398 1249.99C432.327 1230.71 443.178 1236.22 442.3 1215.02C441.421 1193.81 431.273 1190.56 426.281 1172.79C416.281 1137.19 431.243 1114.89 400.859 1103.23C370.475 1091.58 329.09 1105.42 287.549 1116.93C210.444 1138.3 138.544 1059.59 43.4185 1115.55C10.6362 1134.83 18.1754 1146.64 38.7636 1190.05C47.704 1208.89 29.2391 1241.13 39.9862 1262.38C59.6143 1301.21 79.4176 1289.72 127.524 1306.27C135.595 1309.05 145.446 1306.26 154.161 1308.99C168.77 1313.56 173.059 1325.78 198.526 1327.76C239.593 1330.96 248.073 1373.27 311.944 1355.57Z" fill="#7868E6"/>
</svg>
