<svg width="155" height="125" viewBox="0 0 155 125" fill="none" xmlns="http://www.w3.org/2000/svg">
<path fill-rule="evenodd" clip-rule="evenodd" d="M2.44659 103.012C-0.789476 94.9304 2.03728 90.0883 3.8492 83.7672C5.36273 78.4871 17.1988 69.9102 22.6462 78.8534C24.2488 81.4844 23.6059 83.9714 27.1084 86.2837C35.5872 91.8812 30.9618 80.2682 31.2771 77.3325C31.4309 75.9005 30.2209 72.5981 30.6714 71.2161C31.144 69.7659 33.6631 67.7058 33.6631 64.6998C33.6631 61.6938 28.5389 60.5361 27.1084 59.7976C14.3968 53.2344 6.31255 42.2723 10.3413 36.7089C15.9544 28.9576 37.9526 41.1535 44.5625 42.2723C44.6481 42.2868 45.8286 36.1243 46.7928 34.7132C48.7218 31.89 50.8538 29.1495 53.3972 26.8641C54.5365 25.8404 56.0808 25.2085 57.5987 25.0037C62.1413 24.3907 66.7886 23.8881 71.3386 24.4433C72.9464 24.6394 82.5214 13.5578 86.2548 9.98322C114.899 -17.4421 172.32 15.9785 141.02 61.392C135.268 69.739 127.911 72.3934 126.961 75.3434C124.851 81.8962 138.136 81.0345 143.763 81.7344C153.377 82.9301 158.115 87.8687 152.147 96.3332C148.429 101.606 126.619 101.337 117.065 97.5242C113.519 96.1089 109.136 89.9207 105.785 94.997C103.475 98.4946 94.4719 105.915 84.8135 110.113C80.4539 112.008 75.4885 110.866 71.7682 112.558C66.5318 114.939 51.0732 124.939 44.5625 124.937C38.0056 124.934 29.5204 117.044 28.5389 116.526C27.0427 115.737 15.4681 113.476 9.75013 104.652C8.02101 101.984 3.63113 105.971 2.44659 103.012Z" fill="white"/>
<path fill-rule="evenodd" clip-rule="evenodd" d="M32.7897 83.093C32.6498 85.8943 30.4886 88.9277 27.7035 88.5963C26.4465 87.1425 25.4626 85.338 24.4903 83.5546C22.6229 80.1296 20.798 76.7825 17.1622 76.1472C13.5912 75.5232 10.2655 78.1496 8.04144 81.0123C4.82029 85.1585 2.73871 90.181 2.08254 95.3902C1.69678 98.4527 2.95268 102.7 6.02095 102.363C9.52564 101.978 12.0181 104.735 14.5531 107.538C16.8994 110.134 19.2823 112.769 22.5379 112.992C26.4144 113.256 29.5809 115.579 32.7861 117.93C34.9269 119.5 37.0849 121.082 39.4834 122.073C43.9954 123.937 49.1985 123.577 53.8042 121.958C58.4099 120.339 62.5088 117.551 66.3881 114.587L66.5915 114.431C68.7091 112.812 70.9259 111.117 73.5591 110.76C87.0239 108.936 99.5475 101.038 106.996 89.6737C117.556 98.1152 132.321 101 145.282 97.1551C147.481 96.5027 149.694 95.6278 151.325 94.0147C152.956 92.4017 153.88 89.8968 153.079 87.7475C152.202 85.3972 149.582 84.1387 147.092 83.836C145.727 83.6701 144.352 83.7192 142.975 83.7682C141.84 83.8087 140.704 83.8492 139.574 83.7692C132.727 83.2853 127.026 78.5633 121.843 74.065C129.353 71.7611 135.443 65.9742 139.464 59.2249C143.486 52.4756 145.641 44.7868 147.278 37.103C148.139 33.0594 148.779 28.5042 146.469 25.0754C145.435 23.5408 143.919 22.4188 142.408 21.3008C140.707 20.0418 139.013 18.7877 138.021 16.9551C136.113 13.4301 132.395 11.3398 128.868 9.43558C119.638 4.45235 109.037 -0.67638 99.0894 2.65156C95.2148 3.94788 91.8677 6.43188 88.6043 8.8903C83.1852 12.9727 77.3799 17.7615 76.3481 24.4674C67.4812 20.5004 56.0097 23.6686 50.4355 31.6239C49.1605 33.4436 48.1817 35.4502 47.2038 37.4548C46.0526 39.8148 44.9028 42.1719 43.2727 44.2177C36.7255 41.2346 30.0545 38.5231 23.2827 36.0924C20.2803 35.0148 16.6939 34.0624 14.1065 35.928C12.0319 37.4239 11.3955 40.3601 12.0044 42.8442C12.6134 45.3283 14.2391 47.4342 15.9825 49.3056C19.7648 53.3656 24.3081 56.7143 29.3057 59.1254C29.4649 59.2023 29.6253 59.2787 29.7861 59.3553L29.7882 59.3563L29.7904 59.3573L29.7922 59.3582C31.357 60.1036 32.9655 60.8699 34.0075 62.2382C35.158 63.749 35.2293 66.2769 33.6165 67.2794C31.2344 68.76 30.7957 72.0823 31.284 74.8442C31.4509 75.788 31.6958 76.7228 31.9404 77.6563C32.4117 79.4549 32.8817 81.2489 32.7897 83.093ZM97.4626 97.8624C91.4601 104.165 83.0136 107.852 74.3769 108.93C65.7401 110.008 56.9209 108.607 48.6706 105.834C50.8899 105.833 52.4946 102.927 51.3141 101.048C46.7671 106.349 39.8352 108.831 33.2298 111.098C27.2623 113.146 20.1295 111.658 15.7461 107.121C11.3627 102.583 10.1765 95.1375 13.2591 89.6328C14.599 87.24 16.8717 85.1572 19.604 84.9224C22.3363 84.6876 25.2785 86.9531 25.025 89.6838C23.5046 89.4196 21.9046 90.711 21.8419 92.2529C27.7239 91.6193 33.2537 88.2488 36.5123 83.3111C37.637 81.6069 38.4917 79.7505 39.3472 77.8926C39.9215 76.6451 40.4962 75.397 41.1532 74.1936C42.7886 71.1981 45.1368 68.3425 48.3908 67.3132C51.0025 66.4871 53.8256 66.9455 56.525 67.4109L68.5168 69.4785C69.4143 68.7038 67.9608 67.462 66.8002 67.2196C63.0523 66.4365 59.2521 65.9539 55.4516 65.4712H55.4516C51.9274 65.0237 48.4029 64.5761 44.9195 63.8889C37.6796 62.4605 30.4031 59.8478 25.1335 54.6819C28.7079 52.6256 31.4275 49.1314 32.5433 45.1615C32.769 44.3584 32.2312 43.0391 31.579 43.5593C30.8338 46.1364 30.0261 48.8243 28.1591 50.7507C26.2921 52.6772 23.0151 53.5234 20.9019 51.8706C18.1587 49.7251 15.2746 47.3847 14.1897 44.0754C13.1048 40.7661 14.821 36.3217 18.2799 35.916C19.8324 35.7338 21.3501 36.3754 22.7818 37.0029L37.2256 43.3343C41.5244 45.2187 45.8873 47.1219 50.5309 47.8057C53.7914 48.2858 57.1073 48.1511 60.4001 48.0152L69.7349 47.6302C70.1167 47.6144 70.5081 47.5966 70.8595 47.4467C71.7974 47.0466 72.1155 45.9011 72.3224 44.9027C74.8275 32.8148 78.193 20.0583 87.2983 11.7224C91.3726 7.9924 96.4479 5.36616 101.846 4.19459C107.167 3.03975 113.038 3.37926 117.619 6.32223C109.934 6.88786 102.472 10.1285 96.8127 15.358C94.4348 12.8197 90.0092 14.8945 88.1126 17.8101C85.1727 22.3297 85.2261 28.608 88.2425 33.0769C90.7816 36.8385 91.7232 41.3269 92.667 45.8257C93.5343 49.9602 94.4035 54.1036 96.5163 57.6998C99.8587 63.3889 106.083 67.0408 112.583 68.1729C119.084 69.305 125.823 68.1226 132.001 65.8056C125.086 72.7027 114.04 75.0882 104.896 71.6594C104.229 71.4095 103.566 71.1304 102.902 70.8509L102.902 70.8507C100.801 69.9659 98.6923 69.0781 96.4386 69.1045C97.7589 70.5028 99.4453 71.5523 101.283 72.1195C99.1641 75.6784 96.9412 79.1752 94.6178 82.6041C94.3206 83.0427 93.9821 83.5101 93.4735 83.6584C92.9067 83.8237 92.315 83.5413 91.7983 83.2557C87.5268 80.8947 83.6981 77.7356 80.5689 73.9901L74.3091 81.6046C77.5215 85.5313 81.2772 89.0129 85.4357 91.9191C79.9009 98.7566 71.5155 103.21 62.7512 103.967C71.8234 104.429 81.0077 100.174 86.5209 92.954C90.0112 94.9136 93.6781 96.5586 97.4626 97.8624ZM126.153 30.907C128.158 28.721 128.901 25.5988 128.729 22.6378C128.558 19.6767 127.562 16.8291 126.46 14.0755C129.331 13.7351 132.249 14.8185 134.536 16.5876C136.824 18.3566 138.542 20.7638 139.951 23.2888C141.66 26.3497 142.969 29.6594 143.538 33.1184C144.876 41.2629 142.019 49.5671 137.952 56.7492C137.162 58.1438 136.312 59.5288 135.159 60.6422C133.999 61.7633 132.571 62.5692 131.107 63.2492C125.068 66.0551 118.121 66.8648 111.599 65.523C115.762 62.0564 118.703 57.2804 120.576 52.1964C122.449 47.1123 123.306 41.7088 123.799 36.3133L123.802 36.2831C123.926 34.9226 124.057 33.4926 124.833 32.3691C125.089 31.9972 125.407 31.6747 125.725 31.352L125.725 31.3519C125.87 31.2052 126.014 31.0584 126.153 30.907ZM118.618 53.3794C116.821 57.5821 114.038 61.4411 110.264 64.0202C109.822 64.3223 109.348 64.6137 108.816 64.6758C108.347 64.7307 107.877 64.6013 107.426 64.4591C104.218 63.4465 101.187 61.6513 99.1283 58.9901C98.3814 58.0243 97.7716 56.9592 97.2277 55.8662C93.2661 47.906 92.878 38.2482 96.1882 29.9958C96.3463 29.6016 96.5725 29.159 96.9891 29.0763C97.5279 28.9694 97.9415 29.5206 98.244 29.9791C100.717 33.726 105.34 35.6229 109.825 35.8193C114.31 36.0158 118.722 34.7411 122.975 33.3036C122.2 35.1989 122.003 37.2637 121.807 39.309C121.782 39.5666 121.758 39.8239 121.732 40.0805C121.276 44.6284 120.415 49.1767 118.618 53.3794ZM117.705 14.3361C120 13.8144 122.678 13.6709 124.431 15.2406C124.998 15.7477 125.418 16.398 125.765 17.0747C127.937 21.3191 127.086 26.9093 123.75 30.3155C119.893 34.2533 113.789 34.9025 108.297 34.4351C106.326 34.2674 104.299 33.9641 102.617 32.9242C100.44 31.5787 99.1513 29.2077 97.9593 26.9433C103.251 21.03 109.967 16.0951 117.705 14.3361ZM136.266 85.7193C135.546 87.5372 134.819 89.38 134.583 91.3211C134.348 93.2623 134.654 95.3455 135.835 96.9042C126.038 97.4462 116.082 94.4253 108.239 88.5305C110.768 84.951 112.765 80.9964 114.145 76.8363C114.69 75.193 116.771 74.5076 118.46 74.888C120.015 75.2382 121.321 76.2358 122.594 77.2089L122.758 77.3344L122.923 77.4594C127.093 80.6253 131.688 83.1781 136.266 85.7193ZM67.807 110.546C66.262 112.286 64.4154 113.73 62.5292 115.092C58.592 117.934 54.2985 120.518 49.513 121.344C42.4998 122.554 34.9229 119.53 30.6714 113.822L45.9682 108.116C46.3344 107.979 46.7138 107.841 47.104 107.863C47.3245 107.875 47.5366 107.938 47.7491 108.002L47.7492 108.002L47.7494 108.002L47.7495 108.002L47.7496 108.002C47.8909 108.044 48.0324 108.086 48.1768 108.114C48.6679 108.207 49.1633 108.125 49.6609 108.043H49.661H49.661H49.6611H49.6612C49.9706 107.992 50.281 107.941 50.5917 107.932C51.7367 107.897 52.789 108.42 53.8301 108.938C54.0944 109.07 54.358 109.201 54.6222 109.322C58.6785 111.188 63.3553 110.886 67.807 110.546ZM45.7203 45.0973C45.6125 44.8562 45.7262 44.5787 45.84 44.3404C48.9726 37.7795 53.1168 31.7028 58.081 26.3911C61.5728 31.2394 63.8967 36.9228 64.8023 42.8287C64.9834 44.0092 64.7877 45.6418 63.6025 45.7895C57.9219 46.4976 52.1416 46.4014 46.4877 45.5047C46.1888 45.4572 45.8438 45.3736 45.7203 45.0973ZM67.1158 44.6926C65.946 38.2622 63.5178 32.0633 60.0088 26.5493C62.9788 24.9856 66.4899 24.9601 69.8464 24.9706C71.9662 24.9772 74.2803 25.0519 75.8958 26.4244L71.7053 38.7888C70.9939 40.8879 70.2735 43.0458 70.3632 45.2603L67.7144 45.3028C67.62 45.3043 67.5226 45.3053 67.4355 45.2689C67.2236 45.1804 67.1569 44.9185 67.1158 44.6926ZM101.198 76.3344C101.902 75.1374 102.572 73.8588 102.643 72.4722C105.812 73.8976 109.302 74.6039 112.776 74.5229C113.322 74.5102 113.302 75.3509 113.079 75.8485C112.402 77.354 111.725 78.8611 110.942 80.3142C110.139 81.8057 109.227 83.2355 108.315 84.6637L106.131 88.0869C105.833 88.5556 105.524 89.0347 105.08 89.3687C103.887 90.2649 102.186 89.8339 100.825 89.2227C98.5687 88.2089 96.4915 86.7969 94.7186 85.0715C97.1809 82.4005 99.3571 79.4661 101.198 76.3344ZM19.2447 79.2924C20.2947 80.3511 20.981 81.7079 21.65 83.0405L18.4999 83.4898C17.4503 83.6395 16.3741 83.7979 15.4464 84.3111C14.5438 84.8105 13.8477 85.611 13.2351 86.4409C10.6732 89.9117 9.25321 94.2114 9.24424 98.5254C9.241 100.084 7.39937 101.195 5.89212 100.8C4.38486 100.405 3.3609 98.908 3.10035 97.3717C2.83979 95.8355 3.20673 94.2647 3.66694 92.776C5.28646 87.5373 8.18344 82.5896 12.4696 79.1696C13.2886 78.5162 14.1934 77.9045 15.228 77.7392C16.7004 77.5038 18.1946 78.2337 19.2447 79.2924ZM151.529 88.0618C151.893 88.53 152.163 89.1001 152.147 89.6932C152.126 90.4596 151.64 91.1315 151.117 91.6921C148.076 94.9507 143.402 96.0602 138.976 96.5832C138.684 96.6177 138.378 96.6487 138.105 96.5416C137.88 96.4537 137.699 96.2806 137.539 96.1C136.471 94.899 136.048 93.2203 136.135 91.6155C136.221 90.0108 136.775 88.4652 137.465 87.0135C137.61 86.7077 137.778 86.3869 138.074 86.2228C138.31 86.092 138.592 86.0818 138.862 86.0747L144.219 85.9341C145.538 85.8995 146.872 85.8662 148.163 86.1382C149.454 86.4102 150.718 87.0207 151.529 88.0618ZM91.8263 37.4456C89.6435 33.4011 88.0105 29.0604 86.9861 24.5801L87.8679 22.2247C88.959 20.1126 90.3343 18.1476 91.9451 16.3992C92.6011 15.6872 93.7383 15.6084 94.6437 15.9515C95.549 16.2946 96.2773 16.9768 96.9802 17.6427L100.143 20.6391C100.237 20.7282 100.335 20.8244 100.367 20.9501C100.426 21.1867 100.23 21.4033 100.053 21.5714C98.5722 22.9795 97.2563 24.5672 96.2011 26.3173C94.6063 28.9627 93.6324 31.9271 92.6716 34.8628L91.8263 37.4456ZM99.9096 14.7302C106.349 11.2813 113.393 8.03583 120.656 8.81196C124.454 9.21771 128.086 10.7285 131.249 12.8686C122.188 10.5393 112.088 12.6878 104.759 18.5034C103.626 19.4023 101.927 20.3786 100.918 19.3422C100.659 19.0762 100.49 18.7034 100.325 18.3401C100.061 17.7583 99.8076 17.2011 99.2155 17.1467C98.6508 17.0947 98.3995 16.3285 98.6391 15.8145C98.8786 15.3004 99.4097 14.9979 99.9096 14.7302ZM82.2193 77.8124C83.4903 79.0337 84.8899 80.1119 86.2864 81.1874L91.9283 85.5326C90.1909 87.0636 88.491 88.6372 86.8307 90.2516C82.878 87.9089 79.3499 84.8523 76.468 81.2737C78.0455 79.6305 79.5599 77.9267 81.0066 76.1672C81.2339 76.8164 81.7233 77.3359 82.2193 77.8124ZM45.9447 66.0592C42.9741 68.3801 39.9029 70.823 38.2689 74.2202C37.9496 74.8839 37.6859 75.5825 37.4225 76.28C36.8627 77.7626 36.3048 79.2402 35.2194 80.3687C34.7384 80.2275 34.5491 79.6604 34.4319 79.1729L33.3015 74.471C33.149 73.8367 32.9954 73.1846 33.0821 72.538C33.1683 71.8942 33.4857 71.3079 33.7975 70.7382L37.1141 64.6771C37.188 64.542 37.2647 64.4034 37.3832 64.305C37.6767 64.0613 38.1108 64.1389 38.4813 64.2297L45.9447 66.0592ZM94.2037 86.8804C96.2295 88.9633 98.7473 90.5644 101.493 91.5157C102.006 91.0327 102.998 91.299 103.201 91.9743C102.256 93.2001 101.219 94.3545 100.101 95.4247C99.6018 95.9025 98.802 95.8017 98.1285 95.6471C94.8383 94.8919 91.6691 93.6121 88.7771 91.8709C88.5837 91.7544 88.366 91.5888 88.3851 91.3637C88.3979 91.2123 88.5172 91.0947 88.6289 90.9918L92.6893 87.2522C93.1151 86.8601 93.8002 86.4655 94.2037 86.8804ZM146.045 34.64C146.007 35.0982 145.942 35.6096 145.584 35.8978C145.581 32.2983 144.688 28.7029 143.008 25.5199C142.703 24.9426 142.372 24.3783 142.005 23.8388C141.957 23.7694 141.909 23.7 141.861 23.6304C141.49 23.095 141.111 22.5471 141.021 21.9079L145.371 26.453C145.772 26.8712 146.183 27.3075 146.373 27.8546C146.555 28.3822 146.512 28.9576 146.466 29.514L146.045 34.64ZM141.045 28.8639L140.06 27.622C138.976 26.2557 137.646 24.7637 135.902 24.7618C134.89 24.7607 133.959 25.279 133.081 25.7826L131.716 26.5649C131.344 26.7786 130.961 27.0009 130.698 27.3408C129.941 28.321 130.493 29.7532 131.21 30.7643C131.705 31.4638 132.299 32.1356 133.088 32.4723C134.108 32.9078 135.281 32.7152 136.35 32.4203C137.813 32.0166 139.228 31.4342 140.552 30.69C140.975 30.4521 141.443 30.1035 141.421 29.6184C141.409 29.3327 141.223 29.088 141.045 28.8639ZM132.437 29.8225C132.268 29.5526 132.093 29.2642 132.09 28.9455C132.085 28.3221 132.706 27.9039 133.254 27.6054L135.198 26.5447C135.492 26.3843 135.798 26.2203 136.133 26.1977C136.467 26.1752 136.838 26.3361 136.951 26.6517C137.282 27.5829 138.099 28.3257 139.058 28.5673C139.368 28.6455 139.468 29.0751 139.321 29.3595C139.175 29.6439 138.875 29.8102 138.588 29.9524C137.563 30.461 136.491 30.8758 135.391 31.1897C134.95 31.3156 134.483 31.4257 134.037 31.3196C133.307 31.1461 132.837 30.4577 132.437 29.8225ZM118.604 39.4232C116.675 39.6477 116.308 43.1252 117.204 44.9799C117.388 45.3615 117.676 45.7545 118.097 45.8078C118.815 45.899 119.213 45.0122 119.372 44.3054L119.375 44.2889C119.585 43.3574 120.521 39.2 118.604 39.4232ZM108.657 43.9849C109.042 43.0853 109.171 42.0771 109.024 41.1095C108.955 40.6599 108.82 40.2034 108.519 39.862C108.219 39.5206 107.722 39.3221 107.295 39.476C106.907 39.6153 106.664 39.9942 106.48 40.3627C105.833 41.6636 105.575 43.1552 105.748 44.5979C105.828 45.2691 106.674 45.6358 107.316 45.4236C107.958 45.2113 108.39 44.6061 108.657 43.9849ZM114.342 41.926C114.642 41.6779 115.02 42.1285 115.141 42.4979C115.54 43.7118 115.871 44.9484 116.131 46.1996C116.295 46.9904 116.43 47.8119 116.255 48.6003C116.009 49.7119 115.164 50.6162 114.184 51.1953C113.203 51.7744 112.087 52.0742 110.987 52.3676C110.696 52.4451 110.331 52.5003 110.143 52.2653C109.984 52.0658 110.063 51.7533 110.244 51.5736C110.422 51.3974 110.67 51.3161 110.908 51.2379L110.922 51.2332C112.637 50.6698 114.47 49.653 114.869 47.8924C115.089 46.9244 114.822 45.952 114.553 44.9754C114.309 44.086 114.064 43.1931 114.185 42.2972C114.203 42.1607 114.236 42.0139 114.342 41.926ZM102.365 37.9662C101.913 37.3406 102.275 36.39 102.93 35.982C103.585 35.574 104.413 35.5795 105.178 35.6784C106.091 35.7963 106.99 36.0287 107.846 36.3683C108.029 36.4406 108.225 36.5326 108.305 36.7115C108.454 37.0429 108.069 37.4057 107.706 37.4054C107.414 37.4051 107.149 37.2644 106.887 37.1253C106.823 37.0917 106.76 37.0581 106.697 37.0266C105.267 36.3173 103.372 36.7284 102.365 37.9662ZM118.839 37.7507C119.518 37.6377 120.238 37.7945 120.809 38.1797C121.047 38.3407 121.389 38.0699 121.39 37.7821C121.392 37.4943 121.177 37.2522 120.951 37.0742C120.464 36.6909 119.857 36.4615 119.238 36.4265C118.839 36.404 118.397 36.4812 118.139 36.7876C117.882 37.094 117.96 37.669 118.345 37.7757C118.483 37.8138 118.627 37.7881 118.769 37.7628L118.77 37.7627C118.793 37.7586 118.816 37.7545 118.839 37.7507ZM110.409 55.3987C110.6 55.2908 110.852 55.4792 110.881 55.6969C110.909 55.9146 110.785 56.1228 110.643 56.2903C109.931 57.1308 108.703 57.3896 107.62 57.1926C106.536 56.9955 105.564 56.4129 104.65 55.7982C104.22 55.5092 103.797 55.2106 103.38 54.9028C102.948 54.5838 102.488 54.1934 102.436 53.659C102.384 53.1245 103.069 52.5858 103.46 52.9539C104.421 53.8587 105.403 54.7785 106.599 55.3383C107.794 55.8982 109.259 56.0473 110.409 55.3987ZM89.8342 59.6839C85.8309 50.982 84.1608 41.2198 85.0436 31.682C85.0587 31.519 85.0793 31.3444 85.187 31.2212C85.3389 31.0473 85.6506 31.0545 85.7942 31.2353C85.7429 36.482 85.6939 41.7603 86.5505 46.9369C87.407 52.1134 89.2256 57.2348 92.5461 61.2975C92.645 61.4185 92.7455 61.5391 92.8462 61.6598L92.8468 61.6606C93.418 62.3455 93.994 63.0363 94.3179 63.8622C92.1587 63.8205 90.7368 61.6459 89.8342 59.6839ZM93.7608 20.3892C93.6868 20.3092 93.6006 20.2385 93.5006 20.1954C93.2118 20.0707 92.8733 20.1985 92.6206 20.3856C91.6129 21.1315 91.6089 22.8757 92.6132 23.6261C93.1031 23.2087 93.606 22.7751 93.8931 22.199C94.1802 21.623 94.1976 20.8619 93.7608 20.3892ZM102.449 29.5786C103.535 30.4601 104.773 31.1545 106.091 31.622C110.346 33.1306 115.126 32.1834 119.232 30.3069C119.859 30.0202 120.66 30.1713 121.139 30.667C118.503 32.5455 115.274 33.578 112.037 33.5773C111.323 33.5771 110.61 33.5282 109.899 33.4661C108.444 33.3389 106.978 33.1525 105.609 32.6429C104.24 32.1334 102.962 31.2713 102.187 30.0333L102.449 29.5786ZM148.777 86.9161C148.735 87.0609 148.851 87.1996 148.958 87.3059L150.575 88.91C150.751 88.4486 150.553 87.9115 150.214 87.5525C149.875 87.1934 149.417 86.9749 148.97 86.7644C148.883 86.7681 148.802 86.8321 148.777 86.9161Z" fill="#00160A"/>
<circle cx="99.0554" cy="52.0236" r="1.95238" fill="#FFB61D"/>
<ellipse cx="113.778" cy="56.1612" rx="2.01086" ry="1.98211" fill="#FFB61D"/>
</svg>
