<svg width="159" height="139" viewBox="0 0 159 139" fill="none" xmlns="http://www.w3.org/2000/svg">
<ellipse cx="79.5" cy="70.141" rx="79.5" ry="68" fill="white"/>
<path fill-rule="evenodd" clip-rule="evenodd" d="M12.4508 106.674L13.3408 107.318C11.3318 109.121 8.30948 106.879 6.61501 104.778C3.89035 101.4 1.12512 97.8092 0.295909 93.5489C-0.175928 91.1248 0.0128805 88.6267 0.203517 86.1644L0.972175 76.2363C1.31279 71.8369 1.65441 67.4293 2.416 63.0829C4.47717 51.3196 9.66558 40.119 17.3054 30.9399L17.3821 30.8479C18.7312 29.2276 20.2045 27.4584 20.1785 25.3578C20.1235 20.9134 22.6829 16.7603 26.0433 13.851C29.4037 10.9417 33.5185 9.07462 37.5703 7.2472C39.4058 6.41934 41.8027 5.67759 43.2252 7.1027C46.1511 10.0339 51.0343 8.16662 54.8992 6.67795C59.6443 4.85023 64.7127 3.86544 69.7969 3.7833C69.945 3.7809 70.0942 3.77877 70.2444 3.77663C73.2969 3.73306 76.7328 3.68401 78.5952 1.31892C79.781 -0.186933 82.0485 -0.0996841 83.9516 0.12795L97.0407 1.69354C98.0412 1.81321 99.2398 2.08615 99.5552 3.04312C100.401 5.60828 103.384 6.65501 105.97 7.43474C115.163 10.2068 124.149 13.9704 131.954 19.5638C139.76 25.1572 146.356 32.6814 149.857 41.6231C144.165 33.8442 138.327 25.9187 130.429 20.3945C128.168 18.8136 125.764 17.4488 123.324 16.1624C117.565 13.1263 111.571 10.5094 105.344 8.60874C76.4369 -0.214422 42.999 7.96866 21.4336 29.1436C18.3067 32.2138 15.3749 35.5956 13.6016 39.603L15.9442 40.3296C12.2314 41.9891 9.47359 45.6251 8.87658 49.6479C10.3709 47.0888 12.5006 44.9038 15.0206 43.3443C14.2993 45.7539 12.4234 47.6899 10.5843 49.5878C8.24071 52.0065 5.95703 54.3634 6.1994 57.5595C7.31213 54.6392 10.1152 52.4348 13.2155 52.0419C8.29802 56.8467 3.02117 62.4858 3.17787 69.3592C4.97153 65.3901 8.01739 61.998 11.7712 59.789L6.36709 67.0512C4.32331 69.7976 2.17106 72.936 2.63829 76.3274C4.41613 73.1366 6.9582 70.3749 9.99117 68.3394C8.53065 71.6609 6.4454 74.7063 3.87695 77.2692C6.3195 76.9742 8.67111 75.9625 10.5649 74.3919C9.77094 75.5002 9.05561 76.751 9.02888 78.1141C9.00216 79.4772 9.88534 80.9398 11.2345 81.1359C11.6429 80.2226 12.9239 79.8369 13.7686 80.3729C11.2083 82.8641 11.1819 87.4798 13.7134 90.0001C13.9386 88.8157 14.9377 87.8174 16.1224 87.5934C14.234 90.8951 13.8945 95.0414 15.2206 98.6063C15.6219 96.5865 16.7426 94.7173 18.335 93.4115C17.4169 98.2029 15.3871 102.778 12.4508 106.674ZM11.3323 105.147C12.931 105.131 13.9253 103.342 14.0921 101.752C14.2916 99.8499 13.819 97.9485 13.3502 96.0942L10.5691 85.0946C10.0457 85.2603 9.9849 85.8299 9.92124 86.4262C9.86689 86.9354 9.81046 87.4641 9.46232 87.7779C8.75838 86.9025 8.67841 85.5772 9.27199 84.6235C9.87128 83.6607 9.47932 82.3124 8.62912 81.5619C7.77893 80.8113 6.59592 80.5565 5.46245 80.5191C4.84992 80.4989 4.19839 80.5462 3.69712 80.8988C3.19585 81.2514 2.93214 82.0014 3.28816 82.5002C4.34808 83.9853 5.14545 85.6572 5.63238 87.4155C5.6688 87.547 5.70408 87.6801 5.7395 87.8137C5.98153 88.7266 6.23044 89.6655 6.89832 90.3161C7.41466 90.8192 7.54628 91.5869 7.65112 92.3001L8.50079 98.0798C8.65545 99.1318 8.81005 100.205 8.63306 101.253C8.45608 102.302 7.88949 103.341 6.93856 103.817L9.9753 104.85C10.4159 105 10.867 105.152 11.3323 105.147ZM44.4327 10.411C43.8344 10.5376 43.3325 10.0118 42.9041 9.56291L42.8549 9.51137C42.4158 9.05248 41.6608 8.65225 41.1982 9.08745C35.8086 14.1581 29.6751 18.4369 23.0554 21.7443C21.8539 22.3445 21.6926 23.9632 21.6918 25.3062C21.6916 25.7548 22.1211 26.3844 22.401 26.0337C23.766 24.3236 25.541 22.9958 27.2952 21.688C32.2315 18.0077 37.2268 14.2931 42.8858 11.8666C43.5723 11.5722 44.3763 11.1559 44.4327 10.411ZM98.6038 4.70835C98.2982 3.99171 97.4298 3.73309 96.6641 3.58884C94.578 3.1958 92.4547 3.01771 90.3333 2.83979C87.4201 2.59546 84.5108 2.35145 81.7074 1.55149C80.8093 1.2952 80.0412 2.20539 79.5488 2.99901C81.0262 2.84519 82.513 2.78171 83.9982 2.80904C86.5831 2.85661 89.1542 3.17857 91.7194 3.50011C93.0231 3.66351 94.3358 3.82889 95.5859 4.23331C95.7313 4.28037 95.878 4.33072 96.0255 4.38137L96.0258 4.38147C96.8792 4.67451 97.7613 4.9774 98.6038 4.70835ZM71.0096 15.7257C71.6004 15.8607 72.1631 16.3021 72.2513 16.9017C72.3393 17.4997 71.9308 18.0825 71.4086 18.387C70.8865 18.6915 70.2693 18.7768 69.6701 18.8562L67.8664 19.0951C67.6856 19.119 67.4992 19.1448 67.3422 19.2378C66.8888 19.5063 66.9202 20.2337 67.2909 20.6082C67.6616 20.9826 68.2302 21.0756 68.7571 21.0746C71.2109 21.07 73.5336 19.3042 74.2831 16.9677C74.4611 16.4129 74.5553 15.7959 74.3349 15.2565C74.223 14.9828 74.0362 14.7457 73.8286 14.5352C72.8636 13.5572 71.4258 13.1262 70.0552 13.223C68.6847 13.3198 67.3811 13.9036 66.2658 14.706C65.7313 15.0907 65.2218 15.5411 64.9181 16.1255C64.6145 16.7099 64.5491 17.4517 64.8891 18.0158C65.0188 18.2309 65.2189 18.4215 65.4668 18.462C65.7147 18.5024 66.0009 18.3425 66.0317 18.0932C66.1173 17.4003 66.623 16.8149 67.2257 16.4626C67.8285 16.1103 68.5235 15.9554 69.2081 15.8185C69.8023 15.6997 70.4188 15.5908 71.0096 15.7257ZM22.6532 50.0008C23.3275 46.0128 26.5488 42.7706 30.304 41.2682C32.3732 40.4404 34.7412 40.0773 36.8223 40.875C37.3359 41.0718 37.8329 41.3436 38.2031 41.7505C38.5508 42.1327 38.7695 42.615 38.9346 43.1047C39.9919 46.2406 38.9187 49.8673 36.6473 52.274C34.3759 54.6808 31.0687 55.9435 27.7678 56.1801C26.7104 56.2559 25.5748 56.2131 24.7014 55.6121C23.828 55.0111 23.3945 53.6758 24.067 52.8562C24.3848 52.8715 24.5562 53.1551 24.7317 53.4456C24.8186 53.5895 24.9066 53.735 25.0138 53.8505C25.3803 54.245 25.9867 54.2736 26.5247 54.251C28.8652 54.1524 31.2413 53.5723 33.1463 52.2091C35.0513 50.8458 36.4203 48.619 36.3802 46.2768C36.3673 45.5219 36.2032 44.7499 35.7756 44.1278C35.0737 43.1068 33.7467 42.6461 32.5104 42.7276C31.2742 42.8091 30.115 43.3573 29.0623 44.0108C27.6772 44.8706 26.397 45.9512 25.5287 47.3311C24.6603 48.7109 24.236 50.4167 24.6032 52.0051C24.2785 52.5906 23.3138 52.4738 22.9153 51.9359C22.5167 51.398 22.5416 50.6609 22.6532 50.0008ZM44.2088 82.8692C42.4963 83.9711 41.0765 85.6956 40.8125 87.7147C40.5988 89.3483 41.1463 90.975 41.6859 92.5317C42.1069 93.7465 42.5421 94.9874 43.3441 95.9923C44.7927 97.8073 47.1913 98.5583 49.4841 98.9271C50.1084 99.0276 51.0557 98.7456 50.8331 98.1537C48.4125 98.1092 46.0314 96.9873 44.4561 95.1489C42.8807 93.3105 42.1368 90.7857 42.4636 88.3869C42.5324 87.8821 42.6474 87.3798 42.8594 86.9166C43.2881 85.9797 44.0877 85.2593 44.9531 84.7001C46.8159 83.4963 49.084 82.9322 51.2937 83.123C53.4242 83.307 55.5526 84.2409 56.8532 85.9383C58.1537 87.6358 58.4637 90.1401 57.3161 91.9445C57.1296 92.2378 56.9933 92.7564 57.3355 92.8178C59.1831 91.8224 60.2086 89.6273 60.105 87.5312C60.0015 85.4351 58.8946 83.4733 57.3738 82.027C56.5326 81.2271 55.5364 80.5514 54.4079 80.2795C52.9201 79.921 51.3636 80.2908 49.8835 80.68C47.9142 81.198 45.9212 81.7674 44.2088 82.8692ZM128.309 85.473C122.117 83.1609 115.388 82.2991 108.813 82.976C106.056 83.2598 103.29 83.8224 100.812 85.0629C96.1348 87.4035 92.7911 92.2217 92.2347 97.4218C91.6784 102.622 93.9271 108.038 98.0029 111.315C99.5484 112.558 101.303 113.489 103.059 114.42C104.259 115.056 105.459 115.693 106.595 116.43C106.919 116.74 106.189 117.049 105.762 116.911C101.79 115.63 97.9332 113.679 95.1002 110.615C91.6537 106.887 89.9727 101.592 90.6375 96.5585C91.3023 91.5249 94.3002 86.8484 98.5965 84.1427C101.995 82.0026 106.058 81.1009 110.071 80.9561C114.084 80.8114 118.086 81.3849 122.055 81.9999C124.533 82.3839 127.44 83.1203 128.309 85.473ZM63.153 93.2317C62.8719 92.5875 61.7414 92.4196 61.5349 93.0915C60.2212 97.3661 56.0501 100.598 51.5829 100.803C50.5731 100.849 49.5626 100.756 48.5565 100.658C46.3896 100.449 44.1548 100.201 42.2573 99.1339C39.5286 97.5997 37.8866 94.4494 37.8673 91.319C37.8479 88.1886 39.3328 85.1462 41.5873 82.9745C41.2746 82.0981 39.9308 82.5215 39.2636 83.17C35.5658 86.7642 34.9313 92.968 37.526 97.4244C40.1206 101.881 45.5581 104.379 50.6836 103.812C55.8092 103.246 60.4368 99.8139 62.8196 95.2406C63.1444 94.6172 63.4342 93.876 63.153 93.2317ZM31.0558 114.878C30.2209 118.08 30.1417 121.476 30.8263 124.713C31.1334 126.165 31.1669 126.965 31.1732 127.115C31.174 127.132 31.1743 127.141 31.1747 127.141C31.1751 127.141 31.1754 127.133 31.1762 127.116L31.1762 127.115L31.1762 127.115C31.183 126.965 31.2194 126.162 31.5334 124.708C32.2336 121.464 32.0672 118.038 31.0558 114.878ZM35.4917 116.814C34.3055 119.301 34.4525 122.377 35.8705 124.739C36.189 125.27 36.4307 125.701 36.609 126.019L36.6091 126.019C36.8489 126.447 36.974 126.671 37.0173 126.656C37.0645 126.64 37.0142 126.34 36.909 125.712L36.909 125.712L36.9089 125.712L36.9089 125.711C36.8667 125.46 36.8157 125.155 36.7586 124.796L35.4917 116.814ZM38.8318 119.989C38.3284 121.577 38.6987 123.412 39.7784 124.68C40.8809 125.975 41.2409 126.39 40.9051 124.723C40.5622 123.021 39.85 121.395 38.8318 119.989ZM135.486 101.932C133.972 108.012 129.134 112.619 124.444 116.773C124.658 117.235 125.351 117.069 125.795 116.82C130.546 114.145 134.39 109.787 136.144 104.625C137.899 99.4634 137.462 93.5326 134.694 88.8362C134.461 88.4421 134.165 88.0222 133.716 87.9343C133.267 87.8464 132.749 88.3672 133.013 88.741C135.675 92.5103 136.602 97.4547 135.486 101.932ZM67.1795 47.036C67.1683 46.0741 67.1817 45.0332 67.7625 44.2664C68.5621 43.2108 70.0794 43.0999 71.4035 43.0814C71.9945 43.0731 72.5927 43.0656 73.1678 43.2024C74.3921 43.4936 75.3674 44.3972 76.2364 45.3075C76.429 45.5092 76.6338 45.7574 76.5862 46.0322C76.5271 46.3728 76.1004 46.5293 75.7618 46.4597C75.5366 46.4134 75.3347 46.3015 75.1322 46.1893C75.0302 46.1327 74.9281 46.0761 74.8228 46.0278C73.6052 45.469 72.1742 46.0816 71.0806 46.8553C70.9088 46.9769 70.7233 47.133 70.7191 47.3435C70.7149 47.555 70.896 47.719 71.0667 47.844C72.5445 48.9264 74.4366 49.4277 76.2565 49.2189C76.6917 49.1689 77.2029 49.0094 77.3158 48.5862C77.3599 48.4208 77.3428 48.2262 77.3262 48.0381C77.2985 47.7238 77.2725 47.4281 77.5367 47.3188C77.6743 47.262 77.8306 47.303 77.9735 47.3446C78.9586 47.6311 80.1103 48.0916 80.3011 49.0996C80.3563 49.3908 80.317 49.6944 80.2244 49.9759C79.9531 50.7999 79.197 51.4435 78.3402 51.5796C77.9598 51.64 77.5715 51.6072 77.1877 51.5743C76.1852 51.4882 75.1816 51.4021 74.1883 51.242C72.3642 50.9482 70.5805 50.4047 68.9025 49.6315C68.3202 49.3631 67.7151 49.0332 67.4201 48.4639C67.1958 48.0312 67.1852 47.5233 67.1795 47.036ZM104.644 23.3185C104.057 21.7339 102.641 20.4834 100.996 20.0983C100.487 19.9792 99.912 19.9499 99.4804 20.2448C99.0489 20.5397 98.9004 21.2587 99.3119 21.581C99.711 21.8937 99.4698 22.629 98.9823 22.768C98.4947 22.907 97.9702 22.576 97.7266 22.1313C97.4831 21.6867 97.4571 21.1585 97.4543 20.6515C97.4505 19.9749 97.5122 19.2201 98.012 18.7641C98.2024 18.5904 98.4398 18.4784 98.6751 18.3732C99.6487 17.9377 100.725 17.5689 101.766 17.8026C102.757 18.0252 103.548 18.7573 104.239 19.502C104.806 20.1127 105.342 20.7519 105.845 21.4164C106.288 22.0019 106.714 22.6266 106.881 23.3418C107.047 24.057 106.903 24.8869 106.351 25.3705C105.81 25.8439 104.978 25.8842 104.322 25.5919C103.742 25.3336 103.246 24.7652 103.29 24.1317C103.333 23.4982 104.111 22.9729 104.644 23.3185ZM109.876 67.868C111.33 67.8263 112.685 66.7064 112.999 65.286C113.19 64.4223 112.954 63.395 112.201 62.9304C111.652 62.591 110.96 62.6158 110.315 62.6571C109.422 62.7144 108.496 62.7925 107.72 63.2383C106.944 63.6841 106.367 64.6078 106.61 65.469C107.005 66.8691 108.422 67.9096 109.876 67.868ZM110.062 65.7698C109.781 65.8455 109.381 65.773 109.355 65.4831C109.344 65.3625 109.41 65.2485 109.483 65.1528C109.897 64.6177 110.684 64.4099 111.308 64.6711C111.091 65.2021 110.616 65.6208 110.062 65.7698ZM110.814 44.2527C110.577 43.7061 111.036 43.0692 111.593 42.8598C112.04 42.692 112.525 42.7095 113.006 42.7269C113.126 42.7312 113.245 42.7355 113.364 42.737C113.959 42.7443 114.617 42.6451 115.004 42.1918C115.14 42.0319 115.233 41.7969 115.129 41.6143C115.02 41.4235 114.764 41.3905 114.545 41.3791C113.027 41.3004 111.234 41.3471 110.359 42.59C110.171 42.8573 109.71 42.767 109.534 42.4915C109.358 42.2161 109.399 41.8549 109.499 41.5438C109.857 40.43 110.886 39.6197 112.01 39.2949C113.134 38.9701 114.342 39.0726 115.483 39.3309C115.868 39.418 116.267 39.5327 116.548 39.8097C116.771 40.0294 116.896 40.3301 116.977 40.6323C117.366 42.0775 116.792 43.7327 115.592 44.627C114.392 45.5213 112.642 45.5984 111.368 44.813C111.141 44.6729 110.92 44.4976 110.814 44.2527ZM105.61 69.7881C106.315 70.6328 107.15 71.4009 108.163 71.8309C110.21 72.7002 112.827 71.8973 114.035 70.0294C114.475 69.3494 114.671 68.3117 114.021 67.8291C112.979 70.0183 109.958 70.9851 107.839 69.8072C107.433 69.5815 107.064 69.293 106.728 68.9718C105.204 67.5128 104.409 65.1298 105.303 63.2187C105.595 62.5957 106.042 62.0577 106.532 61.5746C107.6 60.5207 109.127 59.6579 110.552 60.1266C110.573 60.1334 110.593 60.1404 110.614 60.1476C110.652 60.1611 110.691 60.1753 110.729 60.1895C110.929 60.263 111.129 60.3367 111.339 60.3245C111.611 60.3086 111.895 60.0653 111.825 59.802C111.804 59.724 111.756 59.6566 111.706 59.5931C110.825 58.4711 109.097 58.1245 107.851 58.8203C106.369 59.6484 104.863 60.6234 104.075 62.1271C102.792 64.5747 103.839 67.6664 105.61 69.7881ZM129.217 32.0355C129.152 32.1288 129.169 32.259 129.184 32.3834C129.203 32.5312 129.22 32.6708 129.099 32.7307C128.655 32.9496 128.124 32.927 127.651 32.782C126.36 32.3858 125.495 31.2011 124.765 30.0654C124.338 29.4012 123.912 28.6959 123.843 27.9092C123.774 27.1224 124.177 26.2369 124.934 26.0144C125.779 25.7665 126.607 26.3946 127.265 26.98C128.007 27.6404 128.765 28.3212 129.224 29.202C129.683 30.0827 129.785 31.2205 129.217 32.0355ZM126.411 29.0882C126.593 29.2652 126.692 29.5029 126.792 29.7407C126.89 29.975 126.988 30.2095 127.166 30.3861C127.39 30.6097 127.731 30.7099 128.04 30.6434C127.46 29.7451 126.788 28.9065 126.037 28.145C125.836 28.2053 125.819 28.503 125.94 28.6743C126.013 28.7783 126.116 28.8548 126.218 28.9315C126.285 28.9811 126.352 29.0308 126.411 29.0882ZM15.9059 110.243C15.8342 111.422 15.9246 112.788 16.868 113.498C17.1825 113.323 17.1611 112.873 17.1215 112.515C16.8779 110.312 17.5616 108.188 18.2497 106.051C18.7424 104.52 19.2373 102.983 19.396 101.404C19.4421 100.945 19.32 100.319 18.8596 100.301C18.5151 100.288 18.2927 100.651 18.1537 100.967C16.8649 103.894 16.1 107.051 15.9059 110.243ZM107.424 67.7284C108.488 68.1995 109.668 68.6795 110.782 68.3414C111.225 68.2069 111.62 67.9509 112.008 67.698C112.006 68.3492 111.446 68.896 110.822 69.0821C110.198 69.2682 109.527 69.1686 108.891 69.0308C108.184 68.8777 107.32 68.4441 107.424 67.7284ZM23.2202 122.068C23.4917 121.584 23.538 121.01 23.5783 120.457L23.8996 116.05C24.0573 113.887 24.2151 111.715 24.0738 109.551C24.0559 109.279 24.0281 108.991 23.869 108.769C23.7099 108.546 23.3732 108.428 23.1552 108.593C22.9949 108.714 22.9542 108.934 22.9265 109.133C22.5777 111.636 22.3913 114.161 22.3688 116.687C22.3525 118.519 22.4362 120.412 23.2202 122.068ZM18.4031 118.28C18.1208 118.519 17.6507 118.309 17.4951 117.973C17.3396 117.638 17.4023 117.247 17.469 116.884C18.1665 113.08 18.9577 109.293 19.8416 105.529C19.8638 105.434 19.8876 105.337 19.9485 105.261C20.1814 104.974 20.6516 105.263 20.8169 105.594C21.2221 106.406 21.028 107.375 20.8252 108.26L18.6466 117.762C18.6032 117.951 18.5516 118.155 18.4031 118.28ZM25.9486 118.449C25.8271 119.876 26.041 121.307 26.2543 122.723C26.3302 123.227 26.6933 123.897 27.1487 123.668L28.0364 114.176C28.0725 113.79 28.0969 113.361 27.8574 113.056C27.6179 112.751 27.0116 112.764 26.9352 113.144L26.2808 116.399C26.1442 117.078 26.0074 117.759 25.9486 118.449ZM117.609 89.3573C115.082 88.0562 112.007 87.5434 109.381 88.6334C107.421 89.4475 101.879 92.964 101.142 97.4714C100.648 100.489 100.653 103.572 101.709 106.485L101.879 106.942C102.193 107.767 103.195 108.716 103.756 108.033C102.12 105.076 101.814 101.415 102.937 98.227C104.06 95.0394 106.593 92.3779 109.721 91.0987C110.379 90.8296 111.067 90.6179 111.775 90.5509C113.207 90.4153 114.636 90.8792 115.916 91.535C118.671 92.9468 122.085 95.2949 123.397 98.0994C124.662 100.803 125.593 104.028 124.448 106.785C123.304 109.542 115.787 111.537 115.787 111.537L116.619 113.055C116.619 113.055 120.827 112.225 123.397 110.353C134.186 102.495 120.027 90.6019 117.609 89.3573Z" fill="#00160A"/>
</svg>
