<svg width="66" height="57" viewBox="0 0 66 57" fill="none" xmlns="http://www.w3.org/2000/svg">
<circle cx="35.3005" cy="30.35" r="26.4966" fill="white"/>
<path fill-rule="evenodd" clip-rule="evenodd" d="M48.9381 4.51814C50.9184 5.20447 52.7837 3.41856 54.4903 2.20185C57.1309 0.319176 60.5756 -0.392683 63.7462 0.289089C64.2721 0.402187 64.823 0.571943 65.1694 0.98357C65.4862 1.35995 65.5762 1.87339 65.6273 2.36266C65.9394 5.35772 65.1905 8.45267 63.5435 10.9736C62.7422 12.2 61.7384 13.292 61.0219 14.5698C60.3053 15.8476 59.8961 17.4086 60.4066 18.7818C63.4415 26.9456 62.1784 36.5747 57.1406 43.6795C52.1028 50.7844 43.4339 55.1623 34.7258 54.9995C30.2723 54.9163 25.9091 53.7276 21.7131 52.2327C19.8824 51.5805 17.8698 50.865 16.0525 51.5537C12.7365 52.8104 9.24533 53.604 5.7119 53.9042C4.83508 53.9786 3.91894 54.0169 3.1099 53.6708C1.89884 53.1526 1.16776 51.8394 1.02874 50.5295C0.889716 49.2196 1.25182 47.9084 1.70922 46.6731C3.08898 42.9469 7.37265 37.1259 9.96552 35.785C9.75585 31.26 9.77879 26.682 10.7571 22.2591C11.7354 17.8362 13.7319 13.5445 17.0069 10.415C18.3597 9.1224 19.9078 8.04653 21.5293 7.11295C29.7305 2.39105 39.9964 1.41916 48.9381 4.51814ZM36.4487 4.15075C30.1773 4.29754 24.0725 6.81675 19.17 10.7306C17.7306 11.8797 16.3777 13.1564 15.2973 14.6481C14.4457 15.824 13.7722 17.1215 13.2094 18.4599C9.87034 26.4018 10.6326 35.9438 15.1903 43.2548C15.2896 43.4142 15.4036 43.5832 15.5809 43.6451C15.7997 43.7215 16.0352 43.6102 16.2397 43.5012C30.5544 35.8728 43.2957 25.3076 53.4423 12.6526C53.684 12.3512 53.9382 12.0011 53.8861 11.6184C53.8469 11.3313 53.642 11.0981 53.442 10.8884C49.1124 6.34887 42.7201 4.00395 36.4487 4.15075ZM45.2165 51.5611C52.0155 48.3691 57.1796 42.0614 59.388 34.8824C59.8881 33.2568 60.2476 31.5763 60.2828 29.8758C60.3125 28.4458 60.113 27.0221 59.914 25.6057C59.6254 23.5522 59.3369 21.4988 59.0484 19.4453C58.9719 18.9009 58.4472 18.1823 58.0641 18.5765C47.426 29.5243 35.8098 39.5212 23.3989 48.409C22.9859 48.7048 22.5313 49.0705 22.5091 49.578C22.4833 50.1654 23.0438 50.5914 23.5531 50.8852C30.0598 54.6373 38.4175 54.7531 45.2165 51.5611ZM3.27801 50.7252C3.77264 51.5186 4.84482 51.6811 5.77936 51.7069C10.6823 51.8425 15.5331 50.4058 19.9197 48.2116C24.3064 46.0174 28.2767 43.0824 32.135 40.0542C37.2812 36.0152 42.2737 31.7821 47.1392 27.4091C53.1649 21.9932 59.0858 16.2487 63.042 9.17834C63.8073 7.81069 64.5136 6.31103 64.3939 4.74842C64.2741 3.1858 63.0277 1.6082 61.4617 1.66928C58.1386 1.7989 54.8711 3.07666 52.3415 5.23569C51.8385 5.66506 52.1941 6.57909 52.8133 6.8115C53.4325 7.04392 54.1225 6.813 54.7276 6.54592C55.3326 6.27883 55.9627 5.96649 56.62 6.03958C57.6242 6.15124 58.3375 7.17931 58.3973 8.18794C58.4571 9.19656 58.0111 10.166 57.4856 11.0289C56.5129 12.626 55.2427 14.0181 53.9592 15.3779C42.5498 27.4654 29.3883 37.8966 15.0144 46.2435C13.7199 46.9953 12.4103 47.7327 11.0172 48.2804C10.2864 48.5677 9.44866 48.7983 8.73549 48.4698C7.56618 47.9312 7.47243 46.2893 7.82325 45.0507C8.35002 43.1907 9.4882 41.5094 11.0193 40.3294C10.7293 39.5123 10.4393 38.6953 10.1493 37.8783C6.36979 40.2924 3.71741 44.3986 3.0709 48.8364C2.97761 49.4768 2.93561 50.1761 3.27801 50.7252ZM14.0243 45.1183C14.0511 45.034 14.0021 44.9462 13.9549 44.8714C13.4667 44.0956 12.9785 43.3198 12.4903 42.5441C12.2694 42.1931 11.8421 41.7956 11.5108 42.045C10.3173 42.9439 9.46292 44.2826 9.15036 45.7437C9.08868 46.032 9.05286 46.3538 9.20984 46.6034C9.5019 47.0677 10.1997 46.9643 10.7161 46.7793C11.8169 46.3848 12.8772 45.8777 13.8751 45.2682C13.9367 45.2306 14.0025 45.187 14.0243 45.1183ZM56.4977 8.19025C56.4487 7.98875 56.2087 7.90121 56.0015 7.89217C55.3725 7.86474 54.7151 8.38191 54.7549 9.01032C54.7947 9.63874 55.7289 10.0344 56.1192 9.54033C56.237 9.39116 56.2868 9.20096 56.3338 9.01676C56.3803 8.83426 56.4268 8.65176 56.4733 8.46926C56.4966 8.37783 56.52 8.28193 56.4977 8.19025Z" fill="#00160A"/>
</svg>
