<svg viewBox="0 0 36 52" fill="none" xmlns="http://www.w3.org/2000/svg">
<path fill-rule="evenodd" clip-rule="evenodd" d="M13.1915 0.333374H13.1189C12.7874 3.5578 10.2244 6.12076 7 6.45215V6.52473C10.3808 6.87219 13.0345 9.67294 13.1512 13.1172H13.1592C13.2813 9.5137 16.1803 6.61458 19.7838 6.49245V6.48443C16.3397 6.3677 13.539 3.71411 13.1915 0.333374Z" fill="white"/>
<path fill-rule="evenodd" clip-rule="evenodd" d="M8.56263 18.3334C8.26139 21.2647 5.93136 23.5948 3.00001 23.896V23.962C6.07346 24.2779 8.48586 26.8239 8.59197 29.955H8.59927C8.71029 26.6792 11.3458 24.0437 14.6216 23.9326V23.9254C11.4906 23.8193 8.94447 21.4068 8.62862 18.3334H8.56263Z" fill="white"/>
<path fill-rule="evenodd" clip-rule="evenodd" d="M6.67511 37.3334C6.31359 40.851 3.51759 43.647 -7.62939e-06 44.0085V44.0877C3.68812 44.4668 6.58298 47.5221 6.71032 51.2793H6.7191C6.85233 47.3483 10.0149 44.1857 13.9459 44.0525V44.0437C10.1887 43.9164 7.13336 41.0215 6.75432 37.3334H6.67511Z" fill="white"/>
<path fill-rule="evenodd" clip-rule="evenodd" d="M17.8751 31.3334H17.8296C17.6222 33.3514 16.0181 34.9555 14 35.1629V35.2084C16.116 35.4259 17.7768 37.1788 17.8499 39.3344H17.8549C17.9313 37.0791 19.7457 35.2646 22.001 35.1882V35.1831C19.8455 35.1101 18.0926 33.4493 17.8751 31.3334Z" fill="white"/>
<path fill-rule="evenodd" clip-rule="evenodd" d="M26.7133 13.3334H26.6144C26.1624 17.7304 22.6673 21.2255 18.2703 21.6773V21.7762C22.8806 22.2499 26.4993 26.0691 26.6584 30.7658H26.6692C26.8357 25.852 30.789 21.8987 35.7027 21.7322V21.7213C31.0062 21.5621 27.1871 17.9435 26.7133 13.3334Z" fill="white"/>
</svg>
