<svg width="41" height="37" viewBox="0 0 41 37" fill="none" xmlns="http://www.w3.org/2000/svg">
<path fill-rule="evenodd" clip-rule="evenodd" d="M5.67246 6H5.73495C6.02011 8.77453 8.22547 10.9799 11 11.265V11.3275C8.09094 11.6265 5.80758 14.0364 5.70716 17H5.70024C5.59518 13.8994 3.10063 11.4048 0 11.2997V11.2928C2.96358 11.1924 5.37347 8.90904 5.67246 6Z" fill="white"/>
<path fill-rule="evenodd" clip-rule="evenodd" d="M32.2136 12C32.4728 14.5223 34.4777 16.5272 37 16.7864V16.8432C34.3554 17.115 32.2796 19.3058 32.1883 22H32.182C32.0865 19.1812 29.8187 16.9135 27 16.8179V16.8117C29.6942 16.7204 31.885 14.6446 32.1568 12H32.2136Z" fill="white"/>
<path fill-rule="evenodd" clip-rule="evenodd" d="M35.2563 25C35.5674 28.0268 37.9732 30.4326 41 30.7437V30.8118C37.8265 31.138 35.3355 33.767 35.226 37H35.2184C35.1038 33.6175 32.3825 30.8962 29 30.7815V30.774C32.233 30.6644 34.862 28.1735 35.1881 25H35.2563Z" fill="white"/>
<path fill-rule="evenodd" clip-rule="evenodd" d="M18.5503 18H18.5893C18.7678 19.7365 20.1481 21.1168 21.8846 21.2953V21.3343C20.0639 21.5215 18.6348 23.0298 18.572 24.8846H18.5676C18.5019 22.944 16.9406 21.3827 15 21.317V21.3127C16.8548 21.2498 18.3631 19.8207 18.5503 18Z" fill="white"/>
<path fill-rule="evenodd" clip-rule="evenodd" d="M19.7351 0H19.8202C20.2091 3.7835 23.2165 6.79085 27 7.17962V7.26473C23.033 7.67235 19.9192 10.9587 19.7823 15H19.773C19.6297 10.7719 16.2281 7.37019 12 7.22687V7.21748C16.0412 7.08048 19.3274 3.96684 19.7351 0Z" fill="white"/>
</svg>
