<svg width="24" height="28" viewBox="0 0 24 28" fill="none" xmlns="http://www.w3.org/2000/svg">
<path fill-rule="evenodd" clip-rule="evenodd" d="M7.21949 0H7.29901C7.66194 3.53122 10.4688 6.33806 14 6.70098V6.78048C10.2976 7.16099 7.39146 10.2282 7.26365 14H7.25485C7.12113 10.0537 3.94625 6.87886 0 6.74512V6.73634C3.77183 6.60851 6.83897 3.70242 7.21949 0Z" fill="white"/>
<path fill-rule="evenodd" clip-rule="evenodd" d="M19.2136 8C19.4728 10.5223 21.4777 12.5272 24 12.7864V12.8432C21.3554 13.115 19.2796 15.3058 19.1883 18H19.182C19.0865 15.1812 16.8187 12.9135 14 12.8179V12.8117C16.6942 12.7204 18.885 10.6446 19.1568 8H19.2136Z" fill="white"/>
<path fill-rule="evenodd" clip-rule="evenodd" d="M13.2563 16C13.5674 19.0268 15.9732 21.4326 19 21.7437V21.8118C15.8265 22.138 13.3355 24.767 13.226 28H13.2184C13.1038 24.6175 10.3825 21.8962 7 21.7815V21.774C10.233 21.6644 12.862 19.1735 13.1881 16H13.2563Z" fill="white"/>
</svg>
