<svg width="39" height="37" viewBox="0 0 39 37" fill="none" xmlns="http://www.w3.org/2000/svg">
<ellipse cx="19.8909" cy="18.6564" rx="18.9826" ry="17.8504" fill="white"/>
<path fill-rule="evenodd" clip-rule="evenodd" d="M20.1108 34.0728C16.4065 34.4702 12.483 33.6132 9.59074 31.265C7.54234 29.6018 6.10303 27.2882 5.09306 24.8506C3.99654 22.2041 3.36611 19.3653 3.23937 16.5034C3.19166 15.426 3.21729 14.3286 3.53391 13.2977C4.05501 11.6009 5.30993 10.2392 6.59097 9.01065C9.31634 6.39689 12.5197 4.01193 16.2557 3.46236C18.8014 3.08788 21.391 3.5983 23.8829 4.23965C25.84 4.74335 27.7947 5.3371 29.555 6.32961C33.4449 8.52275 36.1404 12.7059 36.5303 17.1543C36.9203 21.6027 36.4405 24.5503 30.4373 30.0772C27.3178 32.1139 23.8151 33.6754 20.1108 34.0728ZM26.6433 20.1091C26.0425 20.2979 25.4436 20.6334 24.8234 20.5242C23.5563 20.3012 23.3295 18.5628 23.6109 17.3073C24.4163 13.7135 26.9214 10.5396 30.2298 8.92131C29.4809 7.56287 27.4914 7.46302 26.0843 8.11596C24.6772 8.76889 23.5772 9.94543 22.2165 10.6901C21.5393 11.0607 20.7368 11.3231 20.0001 11.0924C18.7879 10.7127 18.3252 9.12499 18.7221 7.91835C19.1189 6.7117 20.1093 5.8113 21.0603 4.96923C17.6143 5.08997 14.2044 6.12421 11.2719 7.93811C8.97619 9.35812 6.79862 11.6864 7.10321 14.3685C9.00134 12.8407 11.2299 11.7256 13.5907 11.1223C14.0914 10.9943 14.7199 10.9301 15.0332 11.3411C15.2706 11.6524 15.2024 12.1002 15.0503 12.4609C14.2958 14.2505 12.0767 14.8508 10.7003 16.2211C10.5196 16.4011 10.3462 16.6088 10.3025 16.8601C10.2168 17.3524 10.686 17.8015 11.179 17.8837C11.672 17.9659 12.1669 17.7864 12.6345 17.61C13.6056 17.2436 14.5768 16.8772 15.548 16.5108C16.251 16.2456 17.0857 15.9924 17.7109 16.4092C18.3577 16.8404 18.4186 17.8211 18.0531 18.5072C17.6875 19.1932 17.0165 19.6533 16.3708 20.0861C14.8144 21.1292 13.258 22.1724 11.7015 23.2156C10.3984 24.089 8.93845 25.2664 9.06232 26.8303C9.17891 28.3023 10.7983 29.3027 12.2719 29.2082C13.7455 29.1136 15.0424 28.2125 16.1299 27.2137C17.2175 26.2149 18.1992 25.0744 19.4622 24.3094C20.2864 23.8101 21.4623 23.5329 22.1318 24.2259C22.649 24.7613 22.5991 25.6221 22.405 26.3408C21.8455 28.4121 20.3328 30.2052 18.3852 31.1055C19.9698 31.4711 21.6222 31.54 23.2318 31.3078C24.1498 31.1753 25.1001 30.9207 25.7639 30.273C26.4277 29.6252 26.6847 28.4854 26.1089 27.7583C25.25 26.6738 25.2841 25.0869 25.8329 23.8169C26.3816 22.547 27.3618 21.5216 28.322 20.5256C28.0471 19.959 27.2441 19.9203 26.6433 20.1091ZM33.9793 22.5708C34.8423 20.5762 34.8737 18.3205 34.6552 16.1583C34.4135 13.767 33.5798 11.0326 31.3271 10.1947C28.0259 11.565 25.4784 14.6218 24.7256 18.1159C24.6624 18.4095 24.6129 18.7252 24.7284 19.0024C24.8439 19.2797 25.1872 19.4819 25.4532 19.3425C26.3659 18.8643 27.4884 18.5929 28.4162 19.041C29.3441 19.4891 29.7959 20.8877 29.0446 21.5928C28.2145 22.3718 27.362 23.1823 26.9141 24.229C26.4663 25.2756 26.5308 26.6306 27.374 27.3955C28.0076 27.9703 28.0092 29.0989 27.3773 29.6755C29.174 29.1506 30.4543 27.6058 31.6195 26.1408C32.5102 25.0209 33.4112 23.8841 33.9793 22.5708ZM13.295 12.2561C11.4259 13.0313 9.61166 13.9386 7.87023 14.969C7.4561 15.2141 7.03755 15.4734 6.73474 15.8474C6.32584 16.3524 6.17047 17.0115 6.04411 17.6488C5.6359 19.708 5.42542 21.925 6.29019 23.8379C6.56622 24.4485 6.94352 25.0069 7.3189 25.5619C7.4297 25.7258 7.5555 25.9009 7.74543 25.956C7.93535 26.0112 8.18619 25.858 8.14158 25.6654C8.00409 25.0716 8.45381 24.513 8.89758 24.0952C11.4968 21.6486 14.9985 20.2442 17.3359 17.5463C16.9814 17.1262 16.3088 17.3237 15.8032 17.5396C14.599 18.0536 13.3574 18.4799 12.0914 18.814C11.4384 18.9863 10.7106 19.1263 10.1146 18.8086C9.24227 18.3436 9.10028 17.0713 9.56103 16.1967C10.0218 15.3222 10.8977 14.7577 11.7424 14.2443C12.5871 13.7308 13.4733 13.195 13.9802 12.3463C13.888 12.1047 13.5338 12.1571 13.295 12.2561ZM19.6917 28.6458C20.5177 27.9822 21.4101 27.1994 21.5002 26.1437C21.5473 25.5916 21.1933 24.9166 20.6417 24.9692C20.4722 24.9854 20.3174 25.0694 20.1712 25.1567C17.7693 26.5916 16.1885 29.3974 13.479 30.0949C14.2446 30.4377 15.043 30.7073 15.8597 30.8991C16.1028 30.9562 16.3561 31.0065 16.6007 30.9559C16.8853 30.897 17.1235 30.7093 17.35 30.5273C18.1306 29.9001 18.9112 29.273 19.6917 28.6458ZM21.9255 5.70744C21.391 6.29858 20.8565 6.88972 20.322 7.48086C19.8986 7.94911 19.4444 8.56697 19.6801 9.1526C19.8537 9.58404 20.3664 9.80209 20.8301 9.76612C21.2938 9.73014 21.7161 9.49296 22.1049 9.23783C23.4906 8.32864 24.7382 7.09026 26.3552 6.72698C25.234 6.31841 24.1128 5.90983 22.9916 5.50126C22.7582 5.41618 22.4978 5.33119 22.2681 5.42593C22.1303 5.48279 22.0255 5.59683 21.9255 5.70744Z" fill="#00160A"/>
</svg>
